<svg xmlns="http://www.w3.org/2000/svg" viewBox="0 0 800 800">

<g transform="translate(100.6 400)"><path d="M15.46875 0.0H80.56640625V-71.220703125H116.66015625C171.4453125 -71.220703125 208.18359375 -103.447265625 208.18359375 -155.009765625C208.18359375 -206.25 172.412109375 -240.087890625 118.916015625 -240.087890625H15.46875ZM80.56640625 -121.81640625V-187.880859375H103.447265625C126.4892578125 -187.880859375 140.185546875 -175.7958984375 140.185546875 -155.009765625C140.185546875 -134.70703125 126.4892578125 -121.81640625 103.447265625 -121.81640625Z" fill="#FFFFFF"/><path d="M343.974609375 0.0H416.806640625L430.01953125 -46.083984375H503.818359375L517.67578125 0.0H591.474609375L510.7470703125 -240.087890625H421.8017578125ZM443.876953125 -94.74609375C452.255859375 -124.072265625 459.0234375 -155.33203125 465.6298828125 -186.7529296875C472.880859375 -155.33203125 480.615234375 -124.072265625 489.31640625 -94.74609375Z" fill="#FFFFFF"/></g>
<g transform="translate(377.1 280.0) rotate(-4) skewX(-6) scale(.9) translate(-99 -131)">
  <path d="M197.7,33.5 L197.4,32.5 L197.0,31.6 L196.4,30.7 L195.7,29.6 L195.0,28.5 L194.2,27.4 L193.3,26.2 L192.3,24.9 L191.2,23.6 L190.1,22.3 L188.9,20.9 L187.6,19.5 L186.3,18.1 L184.9,16.7 L183.5,15.3 L182.0,13.8 L180.4,12.4 L178.8,11.0 L177.1,9.6 L175.4,8.2 L173.6,6.9 L171.7,5.6 L169.8,4.4 L167.8,3.2 L165.7,2.1 L163.6,1.1 L161.6,0.2 L159.7,-0.6 L157.6,-1.5 L155.5,-2.3 L153.4,-3.1 L151.1,-3.9 L148.9,-4.6 L146.6,-5.3 L144.2,-6.0 L141.8,-6.7 L139.4,-7.3 L136.9,-7.9 L134.4,-8.5 L131.9,-9.0 L129.4,-9.5 L126.9,-9.9 L124.3,-10.3 L121.7,-10.6 L119.2,-10.9 L116.6,-11.2 L114.0,-11.3 L111.4,-11.4 L108.8,-11.5 L106.2,-11.4 L103.6,-11.3 L101.0,-11.1 L98.5,-10.8 L96.0,-10.5 L93.6,-10.1 L91.1,-9.6 L88.6,-9.1 L86.2,-8.5 L83.7,-7.8 L81.3,-7.1 L78.9,-6.3 L76.5,-5.5 L74.1,-4.6 L71.8,-3.7 L69.4,-2.7 L67.1,-1.6 L64.8,-0.5 L62.6,0.6 L60.4,1.8 L58.2,3.0 L56.0,4.3 L53.9,5.7 L51.8,7.1 L49.8,8.5 L47.8,10.1 L45.8,11.6 L43.9,13.3 L42.0,15.0 L40.2,16.8 L38.4,18.6 L36.7,20.5 L35.0,22.5 L33.4,24.5 L31.9,26.6 L30.4,28.7 L29.0,30.8 L27.7,33.0 L26.3,35.2 L25.1,37.5 L23.9,39.7 L22.8,42.1 L21.7,44.4 L20.7,46.8 L19.8,49.2 L18.9,51.6 L18.1,54.1 L17.3,56.6 L16.7,59.1 L16.1,61.7 L15.6,64.3 L15.2,67.0 L14.9,69.7 L14.8,72.4 L14.7,75.2 L14.8,78.0 L15.1,80.8 L15.4,83.5 L15.9,86.1 L16.4,88.8 L17.1,91.3 L17.9,93.8 L18.7,96.3 L19.6,98.7 L20.6,101.1 L21.7,103.4 L22.8,105.7 L24.0,108.0 L25.3,110.2 L26.6,112.3 L28.0,114.4 L29.4,116.5 L30.9,118.5 L32.5,120.5 L34.1,122.4 L35.7,124.3 L37.4,126.1 L39.1,127.9 L40.9,129.6 L42.7,131.3 L44.7,133.1 L47.0,135.0 L49.5,136.9 L52.0,138.6 L54.5,140.1 L57.0,141.5 L59.5,142.8 L62.0,144.0 L64.4,145.2 L66.8,146.2 L69.1,147.2 L71.5,148.2 L73.8,149.1 L76.0,149.9 L78.3,150.7 L80.4,151.5 L82.5,152.3 L84.6,153.0 L86.6,153.8 L88.5,154.5 L90.4,155.2 L92.1,155.9 L93.8,156.5 L95.4,157.2 L96.9,157.8 L98.2,158.4 L99.7,159.2 L101.7,160.1 L104.0,161.2 L106.2,162.2 L108.4,163.2 L110.5,164.1 L112.6,165.0 L114.6,165.9 L116.6,166.7 L118.6,167.5 L120.4,168.3 L122.2,169.1 L124.0,169.9 L125.6,170.6 L127.2,171.3 L128.6,172.0 L130.0,172.7 L131.2,173.4 L132.3,174.0 L133.3,174.5 L134.1,175.1 L134.8,175.5 L135.3,175.9 L135.7,176.2 L136.0,176.4 L136.1,176.4 L136.2,176.5 L136.5,176.8 L136.9,177.3 L137.3,177.8 L137.7,178.5 L138.1,179.2 L138.5,180.0 L139.0,180.9 L139.4,181.8 L139.8,182.7 L140.1,183.7 L140.5,184.7 L140.8,185.8 L141.1,186.9 L141.3,187.9 L141.5,189.0 L141.7,190.0 L141.9,191.1 L142.0,192.1 L142.1,193.0 L142.1,193.9 L142.1,194.8 L142.1,195.6 L142.1,196.3 L142.1,197.0 L142.1,197.5 L142.0,198.0 L141.9,198.5 L141.8,199.1 L141.6,199.8 L141.3,200.7 L140.9,201.6 L140.4,202.6 L139.9,203.6 L139.2,204.7 L138.5,205.9 L137.7,207.0 L136.9,208.2 L136.0,209.4 L135.0,210.6 L134.0,211.9 L132.9,213.1 L131.8,214.3 L130.7,215.5 L129.5,216.6 L128.3,217.8 L127.1,218.9 L125.8,219.9 L124.6,221.0 L123.4,222.0 L122.1,222.9 L120.9,223.8 L119.7,224.6 L118.6,225.4 L117.4,226.1 L116.0,226.8 L114.6,227.6 L113.0,228.3 L111.3,229.1 L109.6,229.8 L107.8,230.5 L105.9,231.2 L104.0,231.8 L102.0,232.5 L100.0,233.1 L97.9,233.7 L95.9,234.2 L93.8,234.7 L91.7,235.2 L89.6,235.7 L87.5,236.2 L85.5,236.6 L83.4,236.9 L81.4,237.3 L79.4,237.6 L77.5,237.9 L75.6,238.2 L73.8,238.4 L72.1,238.6 L70.5,238.8 L69.0,239.0 L67.4,239.1 L65.8,239.1 L64.2,239.1 L62.6,239.1 L61.0,239.0 L59.3,239.0 L57.7,238.8 L56.0,238.7 L54.3,238.5 L52.7,238.3 L51.0,238.0 L49.4,237.7 L47.7,237.4 L46.1,237.1 L44.4,236.8 L42.8,236.5 L41.2,236.1 L39.7,235.8 L38.1,235.4 L36.6,235.0 L35.1,234.7 L33.6,234.3 L32.2,233.9 L30.9,233.6 L29.7,233.3 L28.7,233.1 L27.6,232.8 L26.5,232.4 L25.4,232.0 L24.3,231.5 L23.2,231.0 L22.1,230.5 L21.0,230.0 L19.9,229.4 L18.8,228.8 L17.7,228.2 L16.6,227.6 L15.6,227.0 L14.5,226.3 L13.5,225.7 L12.5,225.2 L11.5,224.6 L10.5,224.0 L9.5,223.5 L8.6,223.1 L7.7,222.6 L6.8,222.3 L5.8,221.9 L4.9,221.7 L4.0,221.7 L0.0,226.3 L0.0,227.1 L0.2,227.9 L0.4,228.6 L0.6,229.5 L1.0,230.4 L1.4,231.3 L1.8,232.3 L2.3,233.3 L2.9,234.4 L3.5,235.5 L4.1,236.6 L4.9,237.7 L5.6,238.9 L6.5,240.1 L7.3,241.3 L8.3,242.6 L9.3,243.8 L10.3,245.1 L11.5,246.3 L12.6,247.5 L13.9,248.7 L15.2,249.9 L16.6,251.1 L18.1,252.3 L19.6,253.4 L21.1,254.4 L22.6,255.3 L24.0,256.2 L25.4,257.1 L26.9,258.0 L28.5,258.9 L30.1,259.9 L31.7,260.8 L33.4,261.7 L35.2,262.6 L37.0,263.4 L38.9,264.3 L40.8,265.2 L42.7,266.0 L44.7,266.8 L46.8,267.6 L48.9,268.3 L51.0,269.0 L53.2,269.7 L55.4,270.4 L57.6,271.0 L59.9,271.5 L62.3,272.0 L64.6,272.4 L67.1,272.8 L69.5,273.1 L71.9,273.4 L74.3,273.5 L76.7,273.7 L79.1,273.8 L81.6,273.8 L84.1,273.9 L86.6,273.9 L89.2,273.8 L91.8,273.7 L94.5,273.6 L97.2,273.4 L99.9,273.2 L102.6,272.9 L105.3,272.6 L108.0,272.2 L110.8,271.8 L113.5,271.4 L116.2,270.9 L119.0,270.3 L121.7,269.7 L124.4,269.0 L127.1,268.2 L129.8,267.4 L132.4,266.6 L135.1,265.6 L137.7,264.5 L140.3,263.4 L142.7,262.2 L145.1,261.0 L147.5,259.7 L149.8,258.4 L152.1,256.9 L154.4,255.5 L156.6,253.9 L158.8,252.4 L161.0,250.7 L163.1,249.0 L165.2,247.3 L167.2,245.5 L169.3,243.6 L171.2,241.7 L173.1,239.8 L175.0,237.7 L176.8,235.7 L178.6,233.6 L180.3,231.4 L181.9,229.1 L183.4,226.8 L184.9,224.4 L186.3,222.0 L187.7,219.4 L188.9,216.8 L190.0,214.0 L191.0,211.2 L191.8,208.4 L192.5,205.5 L193.0,202.7 L193.4,199.9 L193.8,197.1 L194.0,194.3 L194.1,191.5 L194.1,188.7 L194.0,185.9 L193.8,183.2 L193.5,180.4 L193.2,177.6 L192.7,174.9 L192.2,172.2 L191.6,169.5 L190.9,166.8 L190.0,164.1 L189.1,161.5 L188.1,158.8 L187.0,156.2 L185.8,153.6 L184.5,151.1 L183.1,148.6 L181.5,146.1 L179.8,143.5 L177.7,140.8 L175.4,138.3 L173.1,136.0 L170.8,133.8 L168.4,131.9 L166.0,130.0 L163.6,128.4 L161.3,126.8 L158.9,125.4 L156.5,124.0 L154.2,122.7 L151.9,121.5 L149.6,120.4 L147.4,119.3 L145.2,118.3 L143.0,117.3 L140.8,116.3 L138.8,115.4 L136.7,114.5 L134.7,113.6 L132.8,112.8 L131.0,112.0 L129.2,111.2 L127.6,110.4 L126.0,109.7 L124.3,108.8 L122.0,107.7 L119.5,106.6 L117.1,105.6 L114.7,104.6 L112.3,103.7 L109.9,102.8 L107.6,101.9 L105.4,101.2 L103.2,100.4 L101.0,99.7 L98.9,98.9 L96.9,98.3 L95.0,97.6 L93.1,96.9 L91.3,96.3 L89.6,95.7 L88.0,95.0 L86.5,94.5 L85.2,93.9 L83.9,93.3 L82.8,92.8 L81.8,92.3 L81.0,91.9 L80.4,91.5 L79.9,91.2 L79.3,90.9 L78.6,90.3 L77.7,89.6 L76.8,88.9 L76.0,88.1 L75.1,87.3 L74.3,86.5 L73.5,85.7 L72.8,84.9 L72.0,84.1 L71.3,83.2 L70.7,82.4 L70.1,81.6 L69.5,80.8 L68.9,80.0 L68.4,79.2 L67.9,78.4 L67.5,77.7 L67.1,77.0 L66.7,76.3 L66.4,75.7 L66.2,75.1 L65.9,74.5 L65.7,74.0 L65.5,73.6 L65.4,73.1 L65.3,72.8 L65.1,72.4 L65.0,71.8 L65.0,71.2 L65.0,70.4 L65.0,69.5 L65.0,68.6 L65.1,67.5 L65.3,66.4 L65.5,65.2 L65.7,64.0 L66.0,62.8 L66.3,61.5 L66.7,60.2 L67.1,58.9 L67.6,57.6 L68.1,56.3 L68.6,55.0 L69.2,53.7 L69.7,52.5 L70.3,51.3 L70.9,50.1 L71.5,49.0 L72.2,47.9 L72.8,46.9 L73.4,45.9 L74.0,45.0 L74.6,44.1 L75.4,43.2 L76.2,42.2 L77.1,41.3 L78.1,40.3 L79.1,39.3 L80.2,38.3 L81.3,37.3 L82.5,36.3 L83.8,35.3 L85.1,34.3 L86.4,33.4 L87.8,32.4 L89.2,31.5 L90.6,30.6 L92.1,29.8 L93.6,28.9 L95.1,28.1 L96.6,27.4 L98.1,26.6 L99.6,25.9 L101.1,25.3 L102.6,24.7 L104.1,24.1 L105.6,23.6 L107.0,23.1 L108.4,22.7 L109.9,22.3 L111.5,21.9 L113.1,21.6 L114.9,21.3 L116.7,21.1 L118.6,20.9 L120.6,20.7 L122.6,20.6 L124.6,20.5 L126.6,20.5 L128.7,20.5 L130.8,20.5 L132.9,20.5 L135.0,20.6 L137.1,20.7 L139.2,20.9 L141.3,21.0 L143.3,21.2 L145.3,21.4 L147.3,21.6 L149.3,21.9 L151.1,22.1 L153.0,22.4 L154.7,22.6 L156.4,22.9 L157.8,23.1 L159.3,23.4 L160.8,23.8 L162.3,24.3 L163.8,24.8 L165.4,25.4 L167.0,26.0 L168.7,26.7 L170.3,27.4 L171.9,28.2 L173.5,29.0 L175.1,29.8 L176.7,30.6 L178.2,31.5 L179.8,32.3 L181.3,33.1 L182.8,33.9 L184.2,34.7 L185.6,35.4 L187.0,36.1 L188.3,36.7 L189.5,37.3 L190.8,37.8 L192.0,38.1 L193.1,38.4 L194.3,38.5 Z" fill="none" stroke="#0A1030" stroke-width="22" stroke-linejoin="round"/>
  <path d="M197.7,33.5 L197.4,32.5 L197.0,31.6 L196.4,30.7 L195.7,29.6 L195.0,28.5 L194.2,27.4 L193.3,26.2 L192.3,24.9 L191.2,23.6 L190.1,22.3 L188.9,20.9 L187.6,19.5 L186.3,18.1 L184.9,16.7 L183.5,15.3 L182.0,13.8 L180.4,12.4 L178.8,11.0 L177.1,9.6 L175.4,8.2 L173.6,6.9 L171.7,5.6 L169.8,4.4 L167.8,3.2 L165.7,2.1 L163.6,1.1 L161.6,0.2 L159.7,-0.6 L157.6,-1.5 L155.5,-2.3 L153.4,-3.1 L151.1,-3.9 L148.9,-4.6 L146.6,-5.3 L144.2,-6.0 L141.8,-6.7 L139.4,-7.3 L136.9,-7.9 L134.4,-8.5 L131.9,-9.0 L129.4,-9.5 L126.9,-9.9 L124.3,-10.3 L121.7,-10.6 L119.2,-10.9 L116.6,-11.2 L114.0,-11.3 L111.4,-11.4 L108.8,-11.5 L106.2,-11.4 L103.6,-11.3 L101.0,-11.1 L98.5,-10.8 L96.0,-10.5 L93.6,-10.1 L91.1,-9.6 L88.6,-9.1 L86.2,-8.5 L83.7,-7.8 L81.3,-7.1 L78.9,-6.3 L76.5,-5.5 L74.1,-4.6 L71.8,-3.7 L69.4,-2.7 L67.1,-1.6 L64.8,-0.5 L62.6,0.6 L60.4,1.8 L58.2,3.0 L56.0,4.3 L53.9,5.7 L51.8,7.1 L49.8,8.5 L47.8,10.1 L45.8,11.6 L43.9,13.3 L42.0,15.0 L40.2,16.8 L38.4,18.6 L36.7,20.5 L35.0,22.5 L33.4,24.5 L31.9,26.6 L30.4,28.7 L29.0,30.8 L27.7,33.0 L26.3,35.2 L25.1,37.5 L23.9,39.7 L22.8,42.1 L21.7,44.4 L20.7,46.8 L19.8,49.2 L18.9,51.6 L18.1,54.1 L17.3,56.6 L16.7,59.1 L16.1,61.7 L15.6,64.3 L15.2,67.0 L14.9,69.7 L14.8,72.4 L14.7,75.2 L14.8,78.0 L15.1,80.8 L15.4,83.5 L15.9,86.1 L16.4,88.8 L17.1,91.3 L17.9,93.8 L18.7,96.3 L19.6,98.7 L20.6,101.1 L21.7,103.4 L22.8,105.7 L24.0,108.0 L25.3,110.2 L26.6,112.3 L28.0,114.4 L29.4,116.5 L30.9,118.5 L32.5,120.5 L34.1,122.4 L35.7,124.3 L37.4,126.1 L39.1,127.9 L40.9,129.6 L42.7,131.3 L44.7,133.1 L47.0,135.0 L49.5,136.9 L52.0,138.6 L54.5,140.1 L57.0,141.5 L59.5,142.8 L62.0,144.0 L64.4,145.2 L66.8,146.2 L69.1,147.2 L71.5,148.2 L73.8,149.1 L76.0,149.9 L78.3,150.7 L80.4,151.5 L82.5,152.3 L84.6,153.0 L86.6,153.8 L88.5,154.5 L90.4,155.2 L92.1,155.9 L93.8,156.5 L95.4,157.2 L96.9,157.8 L98.2,158.4 L99.7,159.2 L101.7,160.1 L104.0,161.2 L106.2,162.2 L108.4,163.2 L110.5,164.1 L112.6,165.0 L114.6,165.9 L116.6,166.7 L118.6,167.5 L120.4,168.3 L122.2,169.1 L124.0,169.9 L125.6,170.6 L127.2,171.3 L128.6,172.0 L130.0,172.7 L131.2,173.4 L132.3,174.0 L133.3,174.5 L134.1,175.1 L134.8,175.5 L135.3,175.9 L135.7,176.2 L136.0,176.4 L136.1,176.4 L136.2,176.5 L136.5,176.8 L136.9,177.3 L137.3,177.8 L137.7,178.5 L138.1,179.2 L138.5,180.0 L139.0,180.9 L139.4,181.8 L139.8,182.7 L140.1,183.7 L140.5,184.7 L140.8,185.8 L141.1,186.9 L141.3,187.9 L141.5,189.0 L141.7,190.0 L141.9,191.1 L142.0,192.1 L142.1,193.0 L142.1,193.9 L142.1,194.8 L142.1,195.6 L142.1,196.3 L142.1,197.0 L142.1,197.5 L142.0,198.0 L141.9,198.5 L141.8,199.1 L141.6,199.8 L141.3,200.7 L140.9,201.6 L140.4,202.6 L139.9,203.6 L139.2,204.7 L138.5,205.9 L137.7,207.0 L136.9,208.2 L136.0,209.4 L135.0,210.6 L134.0,211.9 L132.9,213.1 L131.8,214.3 L130.7,215.5 L129.5,216.6 L128.3,217.8 L127.1,218.9 L125.8,219.9 L124.6,221.0 L123.4,222.0 L122.1,222.9 L120.9,223.8 L119.7,224.6 L118.6,225.4 L117.4,226.1 L116.0,226.8 L114.6,227.6 L113.0,228.3 L111.3,229.1 L109.6,229.8 L107.8,230.5 L105.9,231.2 L104.0,231.8 L102.0,232.5 L100.0,233.1 L97.9,233.7 L95.9,234.2 L93.8,234.7 L91.7,235.2 L89.6,235.7 L87.5,236.2 L85.5,236.6 L83.4,236.9 L81.4,237.3 L79.4,237.6 L77.5,237.9 L75.6,238.2 L73.8,238.4 L72.1,238.6 L70.5,238.8 L69.0,239.0 L67.4,239.1 L65.8,239.1 L64.2,239.1 L62.6,239.1 L61.0,239.0 L59.3,239.0 L57.7,238.8 L56.0,238.7 L54.3,238.5 L52.7,238.3 L51.0,238.0 L49.4,237.7 L47.7,237.4 L46.1,237.1 L44.4,236.8 L42.8,236.5 L41.2,236.1 L39.7,235.8 L38.1,235.4 L36.6,235.0 L35.1,234.7 L33.6,234.3 L32.2,233.9 L30.9,233.6 L29.7,233.3 L28.7,233.1 L27.6,232.8 L26.5,232.4 L25.4,232.0 L24.3,231.5 L23.2,231.0 L22.1,230.5 L21.0,230.0 L19.9,229.4 L18.8,228.8 L17.7,228.2 L16.6,227.6 L15.6,227.0 L14.5,226.3 L13.5,225.7 L12.5,225.2 L11.5,224.6 L10.5,224.0 L9.5,223.5 L8.6,223.1 L7.7,222.6 L6.8,222.3 L5.8,221.9 L4.9,221.7 L4.0,221.7 L0.0,226.3 L0.0,227.1 L0.2,227.9 L0.4,228.6 L0.6,229.5 L1.0,230.4 L1.4,231.3 L1.8,232.3 L2.3,233.3 L2.9,234.4 L3.5,235.5 L4.1,236.6 L4.9,237.7 L5.6,238.9 L6.5,240.1 L7.3,241.3 L8.3,242.6 L9.3,243.8 L10.3,245.1 L11.5,246.3 L12.6,247.5 L13.9,248.7 L15.2,249.9 L16.6,251.1 L18.1,252.3 L19.6,253.4 L21.1,254.4 L22.6,255.3 L24.0,256.2 L25.4,257.1 L26.9,258.0 L28.5,258.9 L30.1,259.9 L31.7,260.8 L33.4,261.7 L35.2,262.6 L37.0,263.4 L38.9,264.3 L40.8,265.2 L42.7,266.0 L44.7,266.8 L46.8,267.6 L48.9,268.3 L51.0,269.0 L53.2,269.7 L55.4,270.4 L57.6,271.0 L59.9,271.5 L62.3,272.0 L64.6,272.4 L67.1,272.8 L69.5,273.1 L71.9,273.4 L74.3,273.5 L76.7,273.7 L79.1,273.8 L81.6,273.8 L84.1,273.9 L86.6,273.9 L89.2,273.8 L91.8,273.7 L94.5,273.6 L97.2,273.4 L99.9,273.2 L102.6,272.9 L105.3,272.6 L108.0,272.2 L110.8,271.8 L113.5,271.4 L116.2,270.9 L119.0,270.3 L121.7,269.7 L124.4,269.0 L127.1,268.2 L129.8,267.4 L132.4,266.6 L135.1,265.6 L137.7,264.5 L140.3,263.4 L142.7,262.2 L145.1,261.0 L147.5,259.7 L149.8,258.4 L152.1,256.9 L154.4,255.5 L156.6,253.9 L158.8,252.4 L161.0,250.7 L163.1,249.0 L165.2,247.3 L167.2,245.5 L169.3,243.6 L171.2,241.7 L173.1,239.8 L175.0,237.7 L176.8,235.7 L178.6,233.6 L180.3,231.4 L181.9,229.1 L183.4,226.8 L184.9,224.4 L186.3,222.0 L187.7,219.4 L188.9,216.8 L190.0,214.0 L191.0,211.2 L191.8,208.4 L192.5,205.5 L193.0,202.7 L193.4,199.9 L193.8,197.1 L194.0,194.3 L194.1,191.5 L194.1,188.7 L194.0,185.9 L193.8,183.2 L193.5,180.4 L193.2,177.6 L192.7,174.9 L192.2,172.2 L191.6,169.5 L190.9,166.8 L190.0,164.1 L189.1,161.5 L188.1,158.8 L187.0,156.2 L185.8,153.6 L184.5,151.1 L183.1,148.6 L181.5,146.1 L179.8,143.5 L177.7,140.8 L175.4,138.3 L173.1,136.0 L170.8,133.8 L168.4,131.9 L166.0,130.0 L163.6,128.4 L161.3,126.8 L158.9,125.4 L156.5,124.0 L154.2,122.7 L151.9,121.5 L149.6,120.4 L147.4,119.3 L145.2,118.3 L143.0,117.3 L140.8,116.3 L138.8,115.4 L136.7,114.5 L134.7,113.6 L132.8,112.8 L131.0,112.0 L129.2,111.2 L127.6,110.4 L126.0,109.7 L124.3,108.8 L122.0,107.7 L119.5,106.6 L117.1,105.6 L114.7,104.6 L112.3,103.7 L109.9,102.8 L107.6,101.9 L105.4,101.2 L103.2,100.4 L101.0,99.7 L98.9,98.9 L96.9,98.3 L95.0,97.6 L93.1,96.9 L91.3,96.3 L89.6,95.7 L88.0,95.0 L86.5,94.5 L85.2,93.9 L83.9,93.3 L82.8,92.8 L81.8,92.3 L81.0,91.9 L80.4,91.5 L79.9,91.2 L79.3,90.9 L78.6,90.3 L77.7,89.6 L76.8,88.9 L76.0,88.1 L75.1,87.3 L74.3,86.5 L73.5,85.7 L72.8,84.9 L72.0,84.1 L71.3,83.2 L70.7,82.4 L70.1,81.6 L69.5,80.8 L68.9,80.0 L68.4,79.2 L67.9,78.4 L67.5,77.7 L67.1,77.0 L66.7,76.3 L66.4,75.7 L66.2,75.1 L65.9,74.5 L65.7,74.0 L65.5,73.6 L65.4,73.1 L65.3,72.8 L65.1,72.4 L65.0,71.8 L65.0,71.2 L65.0,70.4 L65.0,69.5 L65.0,68.6 L65.1,67.5 L65.3,66.4 L65.5,65.2 L65.7,64.0 L66.0,62.8 L66.3,61.5 L66.7,60.2 L67.1,58.9 L67.6,57.6 L68.1,56.3 L68.6,55.0 L69.2,53.7 L69.7,52.5 L70.3,51.3 L70.9,50.1 L71.5,49.0 L72.2,47.9 L72.8,46.9 L73.4,45.9 L74.0,45.0 L74.6,44.1 L75.4,43.2 L76.2,42.2 L77.1,41.3 L78.1,40.3 L79.1,39.3 L80.2,38.3 L81.3,37.3 L82.5,36.3 L83.8,35.3 L85.1,34.3 L86.4,33.4 L87.8,32.4 L89.2,31.5 L90.6,30.6 L92.1,29.8 L93.6,28.9 L95.1,28.1 L96.6,27.4 L98.1,26.6 L99.6,25.9 L101.1,25.3 L102.6,24.7 L104.1,24.1 L105.6,23.6 L107.0,23.1 L108.4,22.7 L109.9,22.3 L111.5,21.9 L113.1,21.6 L114.9,21.3 L116.7,21.1 L118.6,20.9 L120.6,20.7 L122.6,20.6 L124.6,20.5 L126.6,20.5 L128.7,20.5 L130.8,20.5 L132.9,20.5 L135.0,20.6 L137.1,20.7 L139.2,20.9 L141.3,21.0 L143.3,21.2 L145.3,21.4 L147.3,21.6 L149.3,21.9 L151.1,22.1 L153.0,22.4 L154.7,22.6 L156.4,22.9 L157.8,23.1 L159.3,23.4 L160.8,23.8 L162.3,24.3 L163.8,24.8 L165.4,25.4 L167.0,26.0 L168.7,26.7 L170.3,27.4 L171.9,28.2 L173.5,29.0 L175.1,29.8 L176.7,30.6 L178.2,31.5 L179.8,32.3 L181.3,33.1 L182.8,33.9 L184.2,34.7 L185.6,35.4 L187.0,36.1 L188.3,36.7 L189.5,37.3 L190.8,37.8 L192.0,38.1 L193.1,38.4 L194.3,38.5 Z" fill="#2F5BFF" stroke="None" stroke-width="0" stroke-linejoin="round"/>
</g>
<g transform="translate(100.6 550) scale(1.0965) translate(-3.4 0)"><path d="M38.4765625 0.9765625C59.814453125 0.9765625 70.60546875 -14.16015625 71.58203125 -26.5625H51.5625C50.5859375 -20.361328125 46.19140625 -16.2109375 38.96484375 -16.2109375C29.296875 -16.2109375 23.73046875 -22.998046875 23.73046875 -36.328125C23.73046875 -49.0234375 29.150390625 -56.54296875 39.0625 -56.54296875C46.38671875 -56.54296875 50.68359375 -52.392578125 51.46484375 -46.19140625H71.484375C69.677734375 -63.76953125 56.591796875 -73.73046875 38.4765625 -73.73046875C18.896484375 -73.73046875 3.41796875 -60.64453125 3.41796875 -36.328125C3.41796875 -12.158203125 18.505859375 0.9765625 38.4765625 0.9765625Z M77.443359375 0.0H97.169921875V-24.0234375H104.005859375L116.798828125 0.0H138.283203125L123.439453125 -27.1484375C131.203125 -30.859375 135.841796875 -37.939453125 135.841796875 -48.046875C135.841796875 -63.4765625 125.001953125 -72.75390625 108.791015625 -72.75390625H77.443359375ZM97.169921875 -39.35546875V-56.93359375H104.103515625C111.0859375 -56.93359375 115.236328125 -54.248046875 115.236328125 -48.046875C115.236328125 -41.796875 111.0859375 -39.35546875 104.103515625 -39.35546875Z M139.798828125 0.0H161.869140625L165.873046875 -13.96484375H188.236328125L192.435546875 0.0H214.798828125L190.3359375 -72.75390625H163.3828125ZM170.072265625 -28.7109375C172.611328125 -37.59765625 174.662109375 -47.0703125 176.6640625 -56.591796875C178.861328125 -47.0703125 181.205078125 -37.59765625 183.841796875 -28.7109375Z M253.521484375 0.9765625C274.859375 0.9765625 285.650390625 -14.16015625 286.626953125 -26.5625H266.607421875C265.630859375 -20.361328125 261.236328125 -16.2109375 254.009765625 -16.2109375C244.341796875 -16.2109375 238.775390625 -22.998046875 238.775390625 -36.328125C238.775390625 -49.0234375 244.1953125 -56.54296875 254.107421875 -56.54296875C261.431640625 -56.54296875 265.728515625 -52.392578125 266.509765625 -46.19140625H286.529296875C284.72265625 -63.76953125 271.63671875 -73.73046875 253.521484375 -73.73046875C233.94140625 -73.73046875 218.462890625 -60.64453125 218.462890625 -36.328125C218.462890625 -12.158203125 233.55078125 0.9765625 253.521484375 0.9765625Z M292.48828125 0.0H312.21484375V-18.1640625L321.19921875 -28.466796875L338.240234375 0.0H361.482421875L334.67578125 -41.455078125L360.115234375 -72.75390625H336.7265625L322.2734375 -54.052734375C317.439453125 -47.75390625 314.412109375 -43.310546875 311.873046875 -38.623046875L312.21484375 -57.12890625V-72.75390625H292.48828125Z M366.416015625 0.0H418.662109375V-15.91796875H386.142578125V-29.00390625H416.123046875V-44.53125H386.142578125V-56.8359375H418.857421875V-72.75390625H366.416015625Z M425.6953125 0.0H445.421875V-24.0234375H452.2578125L465.05078125 0.0H486.53515625L471.69140625 -27.1484375C479.455078125 -30.859375 484.09375 -37.939453125 484.09375 -48.046875C484.09375 -63.4765625 473.25390625 -72.75390625 457.04296875 -72.75390625H425.6953125ZM445.421875 -39.35546875V-56.93359375H452.35546875C459.337890625 -56.93359375 463.48828125 -54.248046875 463.48828125 -48.046875C463.48828125 -41.796875 459.337890625 -39.35546875 452.35546875 -39.35546875Z M520.08203125 0.87890625C538.490234375 0.87890625 549.57421875 -7.080078125 549.57421875 -21.484375C549.57421875 -32.51953125 542.884765625 -40.33203125 526.8203125 -43.75L520.86328125 -45.01953125C513.978515625 -46.484375 511.09765625 -48.486328125 511.09765625 -51.953125C511.09765625 -55.17578125 513.783203125 -57.51953125 519.88671875 -57.51953125C526.283203125 -57.51953125 529.310546875 -54.736328125 529.65234375 -50.0H548.59765625C548.5 -64.2578125 537.513671875 -73.73046875 519.88671875 -73.73046875C502.6015625 -73.73046875 490.4921875 -64.404296875 490.4921875 -50.5859375C490.4921875 -39.208984375 498.353515625 -32.8125 511.1953125 -30.078125L518.51953125 -28.515625C526.576171875 -26.806640625 529.45703125 -24.755859375 529.45703125 -21.484375C529.45703125 -17.87109375 526.087890625 -15.33203125 519.7890625 -15.33203125C512.171875 -15.33203125 507.728515625 -18.896484375 507.38671875 -25.5859375H488.63671875C488.734375 -7.32421875 501.087890625 0.87890625 520.08203125 0.87890625Z" fill="#FFFFFF"/></g>

</svg>